<?xml version="1.0" encoding="UTF-8"?>
<svg width="64" height="64" viewBox="0 0 64 64" fill="none" xmlns="http://www.w3.org/2000/svg">
  <g id="terrafusion-icon">
    <!-- Earth/Globe element with gradient -->
    <circle cx="32" cy="32" r="28" fill="url(#earth-gradient)" />
    <path d="M32 4C17.6406 4 6 15.6406 6 30C6 44.3594 17.6406 56 32 56C46.3594 56 58 44.3594 58 30C58 15.6406 46.3594 4 32 4ZM28 8.4375C27.9688 8.96875 27.7188 9.46875 27.2188 9.84375C26.7188 10.2188 26.125 10.375 25.5312 10.2812C24.9375 10.1875 24.4062 9.84375 24.0625 9.34375C23.7188 8.84375 23.5938 8.21875 23.7188 7.62500C24.9062 7.21875 26.1562 6.90625 27.4062 6.68750C27.6562 7.21875 27.7812 7.81250 28 8.4375ZM12.9375 39.2812C12.5 38.4062 12.125 37.5 11.7812 36.5937C12.2812 36.5 12.8125 36.5937 13.2812 36.8437C13.75 37.0937 14.125 37.5 14.3438 37.9687C14.5625 38.4375 14.625 38.9687 14.5 39.4687C14.375 39.9687 14.0938 40.4062 13.6875 40.7187C13.4062 40.25 13.1562 39.75 12.9375 39.2812ZM15.0625 42.7812C15.4375 43.1562 15.7188 43.625 15.8438 44.125C15.9688 44.625 15.9062 45.1562 15.6875 45.625C14.5625 44.75 13.5312 43.7812 12.625 42.7187C13 42.7187 13.4062 42.8437 13.75 43.0625C14.0938 43.3125 14.375 43.625 14.5625 44C14.75 44.375 14.8125 44.8437 14.7188 45.2812C14.625 45.7187 14.375 46.125 14.0312 46.4375C12.5 44.9062 11.2188 43.1562 10.2188 41.25C10.5625 41.1562 10.9375 41.2187 11.2812 41.375C11.625 41.5312 11.9062 41.7812 12.125 42.125C12.3438 42.4687 12.4375 42.8437 12.4062 43.2187C12.375 43.5937 12.2188 43.9687 11.9688 44.25C11.9062 44.1562 11.8438 44.0625 11.7812 43.9687C11.4375 43.5 11.2188 42.9687 11.1562 42.4062C11.0938 41.8437 11.1875 41.2812 11.4375 40.7812C11.6875 40.2812 12.0625 39.875 12.5312 39.5937C13 39.3125 13.5625 39.1875 14.125 39.25C14.3438 40.4062 14.6562 41.5625 15.0625 42.7812ZM32 52C31.4688 52 30.9375 52 30.4375 51.9687C30.2812 51.3437 30.3438 50.6875 30.6562 50.125C30.9375 49.5625 31.4375 49.125 32 48.9062C32.5625 48.6875 33.1875 48.6875 33.75 48.875C34.3125 49.0625 34.7812 49.4375 35.0938 49.9375C34.0938 50.7188 33.0625 51.4062 32 52ZM44.5625 45.8125C44.125 46.3125 43.4688 46.5625 42.8438 46.5C42.2188 46.4375 41.625 46.0625 41.3125 45.5C41.0312 44.9375 41 44.2812 41.25 43.6875C41.5 43.0937 42 42.625 42.625 42.4062C43.8438 43.8437 44.3125 44.7812 44.5625 45.8125ZM47.9062 37.5625C47.5 38.125 46.875 38.5312 46.1875 38.6562C45.4688 38.7812 44.75 38.5937 44.1875 38.1562C43.625 37.7187 43.2812 37.0625 43.2188 36.3437C43.1562 35.625 43.4062 34.9062 43.9062 34.375C45.1562 35.375 46.5938 36.4062 47.9062 37.5625ZM48.7812 34.9687C48.3438 34.7187 48 34.3125 47.875 33.8437C47.75 33.375 47.8125 32.8437 48.0938 32.4375C48.375 32 48.7812 31.6875 49.2812 31.5312C49.7812 31.375 50.3125 31.4062 50.7812 31.625C50 32.75 49.4062 33.8437 48.7812 34.9687ZM50.3438 22.875C50.625 22.9687 50.875 23.125 51.0938 23.3437C51.3125 23.5625 51.4688 23.8125 51.5625 24.0937C51.6562 24.375 51.6875 24.6875 51.6562 24.9687C51.625 25.25 51.5312 25.5312 51.375 25.7812C50.5938 24.8437 49.75 23.8437 48.8438 22.9062C49.125 22.7812 49.4375 22.7187 49.75 22.7187C50.0625 22.7187 50.0625 22.7812 50.3438 22.875ZM50.4062 19.75C50.6875 19.6562 51 19.6562 51.2812 19.7187C51.5312 19.7812 50.8125 20.25 50.4062 19.75Z" fill="#1976D2" />
    
    <!-- Lightning bolt accent -->
    <path d="M42 18L36 30H40L34 42L46 28H40L42 18Z" fill="#FF8000" />
    
    <!-- Ring element -->
    <circle cx="32" cy="32" r="30" stroke="#388E3C" stroke-width="2" stroke-dasharray="4 2" />
  </g>
  
  <!-- Gradients -->
  <defs>
    <linearGradient id="earth-gradient" x1="4" y1="32" x2="60" y2="32" gradientUnits="userSpaceOnUse">
      <stop offset="0" stop-color="#1976D2" />
      <stop offset="0.5" stop-color="#29B6F6" />
      <stop offset="1" stop-color="#388E3C" />
    </linearGradient>
  </defs>
</svg>