<?xml version="1.0" encoding="UTF-8"?>
<svg width="1200" height="300" viewBox="0 0 1200 300" fill="none" xmlns="http://www.w3.org/2000/svg">
  <g id="terrafusion-banner">
    <!-- Background with gradient -->
    <rect width="1200" height="300" fill="url(#banner-bg)" />
    
    <!-- Earth/Globe element -->
    <g transform="translate(100, 100)">
      <circle cx="50" cy="50" r="50" fill="url(#earth-gradient)" />
      <path d="M50 0C22.5 0 0 22.5 0 50C0 77.5 22.5 100 50 100C77.5 100 100 77.5 100 50C100 22.5 77.5 0 50 0ZM40 6.75C39.9531 7.89062 39.5312 9 38.4375 9.85938C37.3438 10.7188 35.9375 11.0781 34.5781 10.8594C33.2188 10.6406 32 9.85938 31.25 8.73438C30.5 7.60938 30.2188 6.20312 30.5 4.85938C32.0312 3.95312 33.75 3.26562 35.4688 2.79688C35.8438 3.95312 36.125 5.07812 40 6.75ZM6.875 76.3281C6.09375 74.3906 5.25 72.375 4.51562 70.2969C5.625 70.0781 6.82812 70.2969 7.85938 70.8594C8.89062 71.4219 9.6875 72.375 10.1562 73.4688C10.625 74.5625 10.75 75.7656 10.4688 76.8594C10.1875 77.9531 9.56252 78.9062 8.6875 79.5938C8.0625 78.5781 7.51562 77.4688 6.875 76.3281ZM10.8125 83.5625C11.625 84.3906 12.2344 85.4375 12.5 86.5625C12.7656 87.6875 12.625 88.875 12.125 89.9688C9.6875 87.9688 7.57812 85.7812 5.78125 83.4844C6.5625 83.4844 7.4375 83.75 8.1875 84.2344C8.9375 84.7188 9.53125 85.4375 9.9375 86.25C10.3438 87.0625 10.4688 87.7812 10.2812 88.7344C10.0938 89.6875 9.5625 90.5625 8.8125 91.25C5.5 87.9688 2.85938 84.3906 0.6875 80.5C1.42188 80.2969 2.23438 80.4219 2.96875 80.7812C3.70312 81.1406 4.29688 81.7031 4.75 82.4375C5.20312 83.1719 5.40625 84 5.34375 84.8281C5.28125 85.6562 4.9375 86.4531 4.375 87.0781C4.25 86.875 4.125 86.6719 4 86.4844C3.25 85.4531 2.78125 84.2656 2.64062 83.0156C2.5 81.7656 2.70312 80.5156 3.25 79.4219C3.79688 78.3281 4.60938 77.4219 5.625 76.7969C6.64062 76.1719 7.875 75.9062 9.0625 76.0469C9.53125 78.6094 10.1875 81.125 10.8125 83.5625ZM50 96C48.8281 96 47.6562 96 46.5625 95.9375C46.2188 94.5781 46.3594 93.125 47.0312 91.875C47.7031 90.625 48.8125 89.6406 50 89.1719C51.1875 88.7031 52.5 88.7031 53.6875 89.1094C54.875 89.5156 55.875 90.3281 56.5625 91.4219C54.375 93.125 52.2188 94.6719 50 96ZM78.125 90.625C77.125 91.7188 75.7031 92.2656 74.3281 92.125C72.9531 91.9844 71.6406 91.1719 70.9375 90C70.25 88.8281 70.1719 87.375 70.7344 86.0781C71.2969 84.7812 72.375 83.7656 73.75 83.2969C76.375 86.3906 77.375 88.4531 78.125 90.625ZM88.8125 71.125C87.9375 72.3125 86.5625 73.1875 85.0781 73.4531C83.5781 73.7188 82.0469 73.3125 80.8438 72.3906C79.6406 71.4688 78.8906 70.0469 78.7656 68.5156C78.6406 66.9844 79.1719 65.5156 80.25 64.3906C83 66.5 86.1875 68.6875 88.8125 71.125ZM90.625 65.9375C89.6875 65.4062 88.9375 64.5625 88.6719 63.5781C88.4062 62.5938 88.5469 61.5 89.1562 60.625C89.7656 59.75 90.625 59.0781 91.6875 58.7656C92.75 58.4531 93.875 58.5156 94.875 59C93.1875 61.4375 92.125 63.75 90.625 65.9375ZM94.0625 43.75C94.6875 43.9375 95.2188 44.2656 95.6875 44.7344C96.1562 45.2031 96.5 45.75 96.6875 46.3281C96.875 46.9062 96.9375 47.5625 96.875 48.1719C96.8125 48.7812 96.625 49.3594 96.2969 49.8906C94.625 47.9062 92.8125 46.375 90.875 44.375C91.5 44.1094 92.1719 43.9844 92.8438 43.9844C93.5156 43.9844 93.5156 43.9844 94.0625 43.75ZM94.1875 37.5C94.7969 37.2969 95.4531 37.2969 96.0469 37.4531C96.625 37.5938 95.0781 38.6094 94.1875 37.5Z" fill="#1976D2" />
    </g>
    
    <!-- Main logo text -->
    <text x="220" y="150" font-family="Inter, sans-serif" font-weight="800" font-size="80" fill="#1976D2" letter-spacing="-2">
      Terra<tspan fill="#388E3C">Fusion</tspan>
    </text>
    
    <!-- Tagline -->
    <text x="225" y="190" font-family="Inter, sans-serif" font-weight="400" font-size="24" fill="#6C757D">
      Intelligent Assessment Solutions
    </text>
    
    <!-- Decorative graphic elements -->
    <g id="decorative-elements">
      <!-- Lightning bolt -->
      <path d="M180 80L170 110H180L160 140L190 108H172L180 80Z" fill="#FF8000" />
      
      <!-- Data visualization graphic -->
      <g transform="translate(800, 100)">
        <!-- Geographic grid pattern -->
        <path d="M0 0 L300 0 L300 100 L0 100 Z" stroke="#E9ECEF" stroke-width="1" fill="none" />
        <path d="M50 0 L50 100" stroke="#E9ECEF" stroke-width="1" />
        <path d="M100 0 L100 100" stroke="#E9ECEF" stroke-width="1" />
        <path d="M150 0 L150 100" stroke="#E9ECEF" stroke-width="1" />
        <path d="M200 0 L200 100" stroke="#E9ECEF" stroke-width="1" />
        <path d="M250 0 L250 100" stroke="#E9ECEF" stroke-width="1" />
        <path d="M0 25 L300 25" stroke="#E9ECEF" stroke-width="1" />
        <path d="M0 50 L300 50" stroke="#E9ECEF" stroke-width="1" />
        <path d="M0 75 L300 75" stroke="#E9ECEF" stroke-width="1" />
        
        <!-- Data points and connections -->
        <circle cx="30" cy="65" r="6" fill="#1976D2" />
        <circle cx="80" cy="40" r="6" fill="#1976D2" />
        <circle cx="130" cy="70" r="6" fill="#1976D2" />
        <circle cx="180" cy="30" r="6" fill="#1976D2" />
        <circle cx="230" cy="55" r="6" fill="#1976D2" />
        <circle cx="280" cy="25" r="6" fill="#1976D2" />
        
        <!-- Connecting lines -->
        <path d="M30 65 L80 40 L130 70 L180 30 L230 55 L280 25" stroke="#1976D2" stroke-width="2" fill="none" />
        
        <!-- Property outlines -->
        <rect x="50" y="60" width="40" height="30" stroke="#388E3C" stroke-width="2" fill="none" />
        <rect x="150" y="40" width="50" height="35" stroke="#388E3C" stroke-width="2" fill="none" />
        <path d="M230 70 L250 70 L260 55 L240 40 L220 50 Z" stroke="#388E3C" stroke-width="2" fill="none" />
      </g>
    </g>
  </g>
  
  <!-- Gradients -->
  <defs>
    <linearGradient id="banner-bg" x1="0" y1="0" x2="1200" y2="300" gradientUnits="userSpaceOnUse">
      <stop offset="0" stop-color="#FFFFFF" />
      <stop offset="1" stop-color="#F8F9FA" />
    </linearGradient>
    
    <linearGradient id="earth-gradient" x1="0" y1="50" x2="100" y2="50" gradientUnits="userSpaceOnUse">
      <stop offset="0" stop-color="#1976D2" />
      <stop offset="0.5" stop-color="#29B6F6" />
      <stop offset="1" stop-color="#388E3C" />
    </linearGradient>
  </defs>
</svg>