<?xml version="1.0" encoding="UTF-8" standalone="no"?>
<svg width="48" height="48" viewBox="0 0 48 48" fill="none" xmlns="http://www.w3.org/2000/svg">
  <rect x="3" y="3" width="42" height="42" rx="10" fill="#001829" />
  <path d="M16 12H38V17C38 18.6569 36.6569 20 35 20H25.5C23.567 20 22 21.567 22 23.5V37H16V12Z" fill="#06B6D4" fill-opacity="0.1" />
  <path d="M32 12H38V18C38 20.2091 36.2091 22 34 22H32V12Z" fill="#06B6D4" />
  <path d="M16 12H22V22H20C17.7909 22 16 20.2091 16 18V12Z" fill="#06B6D4" />
  <path d="M23 20H31V24C31 25.1046 30.1046 26 29 26H25C23.8954 26 23 25.1046 23 24V20Z" fill="#06B6D4" />
  <path d="M23 26L23 36H17L17 29C17 27.3431 18.3431 26 20 26L23 26Z" fill="#06B6D4" />
  <path d="M31 26L31 36H37L37 29C37 27.3431 35.6569 26 34 26L31 26Z" fill="#06B6D4" />
  <rect x="3" y="3" width="42" height="42" rx="10" stroke="#0EA5E9" stroke-opacity="0.5" stroke-width="0.5" />
</svg>