<?xml version="1.0" encoding="UTF-8"?>
<svg width="32" height="32" viewBox="0 0 32 32" fill="none" xmlns="http://www.w3.org/2000/svg">
  <g id="terrafusion-favicon">
    <!-- Earth/Globe element with gradient -->
    <circle cx="16" cy="16" r="14" fill="url(#earth-gradient)" />
    <path d="M16 2C8.8203 2 3 7.8203 3 15C3 22.1797 8.8203 28 16 28C23.1797 28 29 22.1797 29 15C29 7.8203 23.1797 2 16 2ZM14 4.21875C13.9844 4.48438 13.8594 4.73438 13.6094 4.92188C13.3594 5.10938 13.0625 5.1875 12.7656 5.14062C12.4688 5.09375 12.2031 4.92188 12.0312 4.67188C11.8594 4.42188 11.7969 4.10938 11.8594 3.81250C12.4531 3.60938 13.0781 3.45312 13.7031 3.34375C13.8281 3.60938 13.8906 3.90625 14 4.21875ZM6.46875 19.6406C6.25 19.2031 6.0625 18.75 5.89062 18.2969C6.14062 18.25 6.40625 18.2969 6.64062 18.4219C6.875 18.5469 7.0625 18.75 7.17188 18.9844C7.28125 19.2188 7.3125 19.4844 7.25 19.7344C7.1875 19.9844 7.04688 20.2031 6.84375 20.3594C6.70312 20.125 6.57812 19.875 6.46875 19.6406ZM7.53125 21.3906C7.71875 21.5781 7.85938 21.8125 7.92188 22.0625C7.98438 22.3125 7.95312 22.5781 7.84375 22.8125C7.28125 22.375 6.76562 21.8906 6.3125 21.3594C6.5 21.3594 6.70312 21.4219 6.875 21.5312C7.04688 21.6562 7.1875 21.8125 7.28125 22C7.375 22.1875 7.40625 22.4219 7.35938 22.6406C7.3125 22.8594 7.1875 23.0625 7.01562 23.2188C6.25 22.4531 5.60938 21.5781 5.10938 20.625C5.28125 20.5781 5.46875 20.6094 5.64062 20.6875C5.8125 20.7656 5.95312 20.8906 6.0625 21.0625C6.17188 21.2344 6.21875 21.4219 6.20312 21.6094C6.1875 21.7969 6.10938 21.9844 5.98438 22.125C5.95312 22.0781 5.92188 22.0312 5.89062 21.9844C5.71875 21.75 5.60938 21.4844 5.57812 21.2031C5.54688 20.9219 5.59375 20.6406 5.71875 20.3906C5.84375 20.1406 6.03125 19.9375 6.26562 19.7969C6.5 19.6562 6.78125 19.5938 7.0625 19.625C7.17188 20.2031 7.32812 20.7812 7.53125 21.3906ZM16 26C15.7344 26 15.4688 26 15.2188 25.9844C15.1406 25.6719 15.1719 25.3438 15.3281 25.0625C15.4688 24.7812 15.7188 24.5625 16 24.4531C16.2812 24.3438 16.5938 24.3438 16.875 24.4375C17.1562 24.5312 17.3906 24.7188 17.5469 24.9688C17.0469 25.3594 16.5312 25.7031 16 26ZM22.2812 22.9062C22.0625 23.1562 21.7344 23.2812 21.4219 23.25C21.1094 23.2188 20.8125 23.0312 20.6562 22.75C20.5156 22.4688 20.5 22.1406 20.625 21.8438C20.75 21.5469 21 21.3125 21.3125 21.2031C21.9219 21.9219 22.1562 22.3906 22.2812 22.9062ZM23.9531 18.7812C23.75 19.0625 23.4375 19.2656 23.0938 19.3281C22.7344 19.3906 22.375 19.2969 22.0938 19.0781C21.8125 18.8594 21.6406 18.5312 21.6094 18.1719C21.5781 17.8125 21.7031 17.4531 21.9531 17.1875C22.5781 17.6875 23.2969 18.2031 23.9531 18.7812ZM24.3906 17.4844C24.1719 17.3594 24 17.1562 23.9375 16.9219C23.875 16.6875 23.9062 16.4219 24.0469 16.2188C24.1875 16 24.3906 15.8438 24.6406 15.7656C24.8906 15.6875 25.1562 15.7031 25.3906 15.8125C25 16.375 24.7031 16.9219 24.3906 17.4844ZM25.1719 11.4375C25.3125 11.4844 25.4375 11.5625 25.5469 11.6719C25.6562 11.7812 25.7344 11.9062 25.7812 12.0469C25.8281 12.1875 25.8438 12.3438 25.8281 12.4844C25.8125 12.625 25.7656 12.7656 25.6875 12.8906C25.2969 12.4219 24.875 11.9219 24.4219 11.4531C24.5625 11.3906 24.7188 11.3594 24.875 11.3594C25.0312 11.3594 25.0312 11.3906 25.1719 11.4375ZM25.2031 9.875C25.3438 9.82812 25.5 9.82812 25.6406 9.85938C25.7656 9.89062 25.4062 10.125 25.2031 9.875Z" fill="#1976D2" />
    
    <!-- Lightning bolt accent -->
    <path d="M21 9L18 15H20L17 21L23 14H20L21 9Z" fill="#FF8000" />
  </g>
  
  <!-- Gradients -->
  <defs>
    <linearGradient id="earth-gradient" x1="2" y1="16" x2="30" y2="16" gradientUnits="userSpaceOnUse">
      <stop offset="0" stop-color="#1976D2" />
      <stop offset="0.5" stop-color="#29B6F6" />
      <stop offset="1" stop-color="#388E3C" />
    </linearGradient>
  </defs>
</svg>